<?xml version="1.0" standalone="no"?>
<svg xmlns:xlink="http://www.w3.org/1999/xlink" id="wave" style="transform:rotate(0deg); transition: 0.3s" viewBox="0 0 1440 490" version="1.1" xmlns="http://www.w3.org/2000/svg"><defs><linearGradient id="sw-gradient-0" x1="0" x2="0" y1="1" y2="0"><stop stop-color="rgba(125, 5, 194, 1)" offset="0%"/><stop stop-color="rgba(125, 5, 194, 1)" offset="100%"/></linearGradient></defs><path style="transform:translate(0, 0px); opacity:1" fill="url(#sw-gradient-0)" d="M0,294L120,302.2C240,310,480,327,720,277.7C960,229,1200,114,1440,73.5C1680,33,1920,65,2160,89.8C2400,114,2640,131,2880,163.3C3120,196,3360,245,3600,277.7C3840,310,4080,327,4320,302.2C4560,278,4800,212,5040,187.8C5280,163,5520,180,5760,212.3C6000,245,6240,294,6480,294C6720,294,6960,245,7200,212.3C7440,180,7680,163,7920,171.5C8160,180,8400,212,8640,220.5C8880,229,9120,212,9360,187.8C9600,163,9840,131,10080,106.2C10320,82,10560,65,10800,65.3C11040,65,11280,82,11520,122.5C11760,163,12000,229,12240,285.8C12480,343,12720,392,12960,392C13200,392,13440,343,13680,318.5C13920,294,14160,294,14400,285.8C14640,278,14880,261,15120,245C15360,229,15600,212,15840,196C16080,180,16320,163,16560,179.7C16800,196,17040,245,17160,269.5L17280,294L17280,490L17160,490C17040,490,16800,490,16560,490C16320,490,16080,490,15840,490C15600,490,15360,490,15120,490C14880,490,14640,490,14400,490C14160,490,13920,490,13680,490C13440,490,13200,490,12960,490C12720,490,12480,490,12240,490C12000,490,11760,490,11520,490C11280,490,11040,490,10800,490C10560,490,10320,490,10080,490C9840,490,9600,490,9360,490C9120,490,8880,490,8640,490C8400,490,8160,490,7920,490C7680,490,7440,490,7200,490C6960,490,6720,490,6480,490C6240,490,6000,490,5760,490C5520,490,5280,490,5040,490C4800,490,4560,490,4320,490C4080,490,3840,490,3600,490C3360,490,3120,490,2880,490C2640,490,2400,490,2160,490C1920,490,1680,490,1440,490C1200,490,960,490,720,490C480,490,240,490,120,490L0,490Z"/></svg>